<?xml version="1.0" standalone="no"?>
<!DOCTYPE svg PUBLIC "-//W3C//DTD SVG 20010904//EN"
 "http://www.w3.org/TR/2001/REC-SVG-20010904/DTD/svg10.dtd">
<svg version="1.0" xmlns="http://www.w3.org/2000/svg"
 width="512.000000pt" height="512.000000pt" viewBox="0 0 512.000000 512.000000"
 preserveAspectRatio="xMidYMid meet">

<g transform="translate(0.000000,512.000000) scale(0.100000,-0.100000)"
fill="#000000" stroke="none">
<path d="M2627 4180 c-120 -30 -218 -127 -254 -249 -26 -89 -18 -120 257
-1045 83 -279 149 -510 147 -513 -3 -2 -54 40 -113 93 -135 120 -182 144 -285
144 -98 0 -156 -21 -219 -77 -75 -68 -90 -103 -90 -217 0 -152 38 -227 238
-477 337 -421 773 -831 959 -901 65 -24 143 30 143 100 0 53 -24 81 -131 153
-49 32 -128 93 -176 133 -243 204 -717 746 -789 901 -44 94 -22 165 51 165 43
0 84 -31 261 -197 276 -259 339 -315 361 -324 27 -10 88 6 113 31 47 47 59 -2
-322 1275 -127 427 -188 647 -188 681 0 28 8 44 34 70 29 29 41 34 79 34 75 0
97 -27 145 -177 37 -116 321 -1049 344 -1133 12 -41 32 -67 70 -86 43 -22 75
-17 115 20 30 27 37 40 36 68 0 19 -30 138 -66 264 -98 342 -100 352 -86 386
19 45 55 68 110 68 81 0 101 -25 154 -198 143 -459 145 -466 176 -494 52 -49
127 -31 165 39 l21 38 -64 215 c-35 118 -66 237 -69 265 -6 45 -3 54 21 83 58
69 154 62 194 -15 11 -22 49 -132 84 -246 36 -114 72 -218 81 -232 9 -14 33
-29 56 -35 70 -19 140 28 140 94 0 16 -16 87 -36 158 -40 145 -40 180 3 222
61 61 146 37 193 -54 55 -108 203 -595 264 -865 57 -258 77 -403 85 -608 l6
-189 33 -29 c43 -38 111 -41 146 -5 95 94 32 603 -154 1261 -62 219 -131 425
-169 510 -37 81 -104 153 -184 196 -57 31 -69 34 -147 34 -74 0 -93 -4 -150
-31 l-65 -31 -60 49 c-77 62 -138 83 -240 82 -83 0 -146 -20 -201 -63 l-26
-20 -53 35 c-105 70 -226 84 -341 38 -37 -15 -69 -23 -73 -18 -5 5 -34 92 -66
194 -68 223 -101 294 -158 347 -73 67 -217 106 -310 83z"/>
<path d="M1084 4131 c-41 -31 -262 -253 -307 -309 -60 -75 -17 -172 77 -172
40 0 51 6 107 55 44 38 66 51 71 42 4 -7 8 -90 8 -184 l0 -173 28 -30 c38 -43
86 -49 132 -18 51 34 59 69 59 256 1 89 4 162 8 162 3 0 34 -27 69 -60 56 -54
67 -60 104 -60 72 0 104 27 115 99 l7 44 -159 159 c-162 164 -227 218 -261
218 -10 0 -37 -13 -58 -29z"/>
<path d="M405 3442 c-61 -45 -320 -313 -339 -349 -11 -21 -14 -43 -10 -60 4
-18 71 -93 177 -200 168 -170 171 -173 214 -173 33 0 50 7 77 30 64 57 57 112
-26 197 -37 37 -47 54 -37 57 8 3 94 7 192 8 l179 3 24 28 c33 39 33 100 -1
149 l-25 38 -191 2 -191 3 61 69 c34 38 64 80 67 93 13 51 -39 120 -97 129
-27 5 -42 0 -74 -24z"/>
<path d="M1771 3434 c-61 -51 -49 -122 34 -204 25 -24 45 -48 45 -52 0 -4 -86
-8 -190 -8 -150 0 -197 -3 -220 -15 -71 -36 -80 -109 -24 -183 9 -12 99 -21
228 -23 83 -1 161 -5 174 -8 24 -7 23 -8 -25 -61 -65 -71 -76 -94 -69 -135 10
-50 56 -85 114 -85 l46 0 178 178 c167 167 178 180 178 216 0 20 -6 49 -14 64
-8 15 -86 98 -175 185 -159 155 -161 157 -205 157 -33 0 -52 -7 -75 -26z"/>
<path d="M1114 2827 c-11 -5 -31 -21 -46 -35 l-28 -26 0 -185 c0 -102 -4 -191
-8 -198 -5 -9 -27 4 -70 42 -35 30 -74 58 -87 61 -80 20 -160 -80 -122 -152 8
-16 92 -104 185 -196 157 -156 172 -168 206 -168 20 0 49 6 64 14 29 16 299
285 326 326 39 59 8 140 -63 161 -49 14 -90 -3 -151 -66 -24 -25 -48 -45 -52
-45 -4 0 -8 80 -8 178 0 186 -8 238 -39 266 -26 24 -83 36 -107 23z"/>
</g>
</svg>
