<?xml version="1.0" standalone="no"?>
<!DOCTYPE svg PUBLIC "-//W3C//DTD SVG 20010904//EN"
 "http://www.w3.org/TR/2001/REC-SVG-20010904/DTD/svg10.dtd">
<svg version="1.0" xmlns="http://www.w3.org/2000/svg"
 width="746.000000pt" height="710.000000pt" viewBox="0 0 746.000000 710.000000"
 preserveAspectRatio="xMidYMid meet">

<g transform="translate(0.000000,710.000000) scale(0.100000,-0.100000)"
fill="#000000" stroke="none">
<path d="M3320 4345 l-365 -365 368 -368 367 -367 0 228 c0 175 3 227 13 227
118 -2 499 -23 617 -35 444 -44 898 -133 1285 -250 220 -67 406 -153 574 -266
77 -53 109 -69 126 -65 38 10 143 86 179 129 71 88 86 147 61 234 -57 198
-266 383 -577 513 -267 111 -793 216 -1353 269 -175 17 -637 41 -787 41 l-138
0 -2 220 -3 220 -365 -365z"/>
<path d="M2510 4173 c-154 -25 -376 -69 -460 -93 -433 -119 -774 -305 -861
-470 -19 -36 -24 -60 -24 -125 0 -110 37 -186 135 -279 l71 -66 37 36 c99 96
338 228 540 298 115 40 428 119 540 136 l72 12 0 279 c0 217 -3 279 -12 278
-7 -1 -24 -4 -38 -6z"/>
<path d="M6756 3136 c-72 -148 -300 -313 -606 -439 -175 -72 -520 -173 -742
-217 l-58 -11 0 -580 c0 -461 3 -579 13 -579 7 0 46 9 87 20 359 98 752 288
1007 487 173 134 281 317 330 559 15 76 18 136 17 409 -1 176 -6 340 -10 365
l-9 45 -29 -59z"/>
<path d="M935 2998 c-6 -181 5 -465 25 -598 34 -224 192 -440 444 -609 146
-97 276 -158 491 -229 538 -178 1161 -290 1723 -309 l192 -6 0 -321 0 -321
597 598 598 597 -598 597 -597 598 0 -329 0 -329 -227 6 c-726 20 -1559 169
-2031 363 -277 114 -475 259 -562 412 -19 34 -38 62 -41 62 -4 0 -10 -82 -14
-182z"/>
</g>
</svg>
