<?xml version="1.0" standalone="no"?>
<!DOCTYPE svg PUBLIC "-//W3C//DTD SVG 20010904//EN"
 "http://www.w3.org/TR/2001/REC-SVG-20010904/DTD/svg10.dtd">
<svg version="1.0" xmlns="http://www.w3.org/2000/svg"
 width="2500.000000pt" height="1668.000000pt" viewBox="0 0 2500.000000 1668.000000"
 preserveAspectRatio="xMidYMid meet">

<g transform="translate(0.000000,1668.000000) scale(0.100000,-0.100000)"
fill="#000000" stroke="none">
<path d="M9430 11306 c-106 -30 -200 -110 -246 -209 l-29 -62 -3 -602 -3 -603
376 0 375 0 0 370 0 370 1228 0 1227 0 123 -370 124 -370 393 0 394 0 -60 177
c-32 98 -59 181 -59 185 0 4 183 8 408 10 l407 3 57 27 c204 95 281 350 163
539 -35 55 -120 126 -183 151 -57 23 -61 23 -572 26 -283 1 -520 2 -526 2 -5
0 -20 33 -33 73 -13 39 -34 91 -47 113 -34 59 -115 129 -182 156 l-57 23
-1615 2 c-1271 1 -1625 -1 -1660 -11z"/>
<path d="M8697 9449 c-105 -25 -209 -109 -255 -207 -26 -56 -27 -62 -32 -301
l-5 -244 -81 -18 c-171 -37 -350 -115 -494 -217 -90 -63 -245 -221 -308 -314
-100 -146 -172 -315 -209 -491 -24 -115 -25 -381 0 -494 57 -266 173 -481 361
-668 184 -184 398 -300 650 -354 l81 -18 5 -244 c5 -238 6 -245 31 -299 41
-85 90 -135 177 -177 l76 -38 2690 0 2691 0 67 32 c81 38 146 102 185 181 l28
57 3 1755 c3 1947 7 1800 -64 1905 -40 60 -86 97 -162 133 l-57 27 -2670 2
c-1530 0 -2686 -3 -2708 -8z m2375 -1863 c106 -12 214 -92 272 -201 29 -56 31
-67 31 -160 0 -90 -3 -106 -29 -159 -54 -110 -150 -183 -271 -205 -79 -15
-791 -15 -870 0 -121 22 -217 95 -271 205 -26 53 -29 69 -29 159 0 91 3 105
29 158 35 67 118 150 180 177 24 11 67 23 96 27 58 9 786 8 862 -1z"/>
<path d="M17275 9454 c-11 -3 -540 -178 -1176 -390 -757 -252 -1172 -395
-1202 -414 -64 -41 -123 -119 -147 -197 -19 -63 -20 -90 -20 -1043 0 -953 1
-980 20 -1043 24 -78 83 -156 147 -197 55 -35 2334 -797 2410 -807 145 -17
303 79 371 225 l27 57 0 1765 0 1765 -29 63 c-38 81 -123 162 -202 192 -57 21
-161 34 -199 24z"/>
</g>
</svg>
